<?xml version="1.0" encoding="UTF-8"?><svg id="a" xmlns="http://www.w3.org/2000/svg" viewBox="0 0 98 98"><defs><style>.b{fill:#fff;}</style></defs><path class="b" d="M68,8c12.15,0,22,9.85,22,22v38c0,12.15-9.85,22-22,22H30c-12.15,0-22-9.85-22-22V30c0-12.15,9.85-22,22-22h38m0-8H30C13.45,.05,.05,13.45,0,30v38c.05,16.55,13.45,29.95,30,30h38c16.55-.05,29.95-13.45,30-30V30c-.05-16.55-13.45-29.95-30-30Z"/><path class="b" d="M75.14,17c-3.16,0-5.73,2.57-5.73,5.73s2.57,5.73,5.73,5.73c3.16,0,5.73-2.57,5.73-5.73s-2.57-5.73-5.73-5.73h0Z"/><path class="b" d="M49.27,31.47c9.76,0,17.68,7.91,17.69,17.67,0,9.76-7.91,17.68-17.67,17.69-9.76,0-17.68-7.91-17.69-17.67,0,0,0-.01,0-.02,.02-9.75,7.92-17.65,17.67-17.67m0-8c-14.18,.03-25.66,11.55-25.63,25.73,.03,14.18,11.55,25.66,25.73,25.63,14.17-.03,25.64-11.52,25.63-25.69,0-14.18-11.51-25.68-25.69-25.67h-.04Z"/></svg>