<?xml version="1.0" encoding="UTF-8"?><svg id="a" xmlns="http://www.w3.org/2000/svg" viewBox="0 0 49.48 49.71"><defs><style>.b{fill:#fff;fill-rule:evenodd;}</style></defs><path class="b" d="M42.27,7.22C37.62,2.57,31.43,0,24.84,0,11.26,0,.21,11.05,.21,24.63c0,4.34,1.13,8.58,3.29,12.32L0,49.71l13.06-3.43c3.6,1.96,7.65,3,11.77,3h.01c13.58,0,24.63-11.05,24.64-24.63,0-6.58-2.56-12.77-7.21-17.43ZM24.84,45.13h0c-3.67,0-7.28-.99-10.42-2.85l-.75-.44-7.75,2.03,2.07-7.56-.49-.77c-2.05-3.26-3.13-7.03-3.13-10.9,0-11.29,9.19-20.47,20.48-20.47,5.47,0,10.61,2.13,14.48,6,3.87,3.87,5.99,9.01,5.99,14.49,0,11.29-9.19,20.48-20.48,20.48Z"/><path class="b" d="M36.07,29.79c-.62-.31-3.64-1.8-4.21-2-.56-.21-.97-.31-1.38,.31-.41,.62-1.59,2-1.95,2.41-.36,.41-.72,.46-1.33,.15-.62-.31-2.6-.96-4.95-3.06-1.83-1.63-3.07-3.65-3.42-4.26-.36-.62-.04-.95,.27-1.26,.28-.28,.62-.72,.92-1.08,.31-.36,.41-.62,.62-1.03,.21-.41,.1-.77-.05-1.08-.15-.31-1.38-3.34-1.9-4.57-.5-1.2-1.01-1.04-1.39-1.06-.36-.02-.77-.02-1.18-.02s-1.08,.15-1.64,.77c-.56,.62-2.15,2.11-2.15,5.14s2.21,5.96,2.51,6.37c.31,.41,4.34,6.63,10.52,9.29,1.47,.63,2.62,1.01,3.51,1.3,1.47,.47,2.82,.4,3.88,.24,1.18-.18,3.64-1.49,4.15-2.93,.51-1.44,.51-2.67,.36-2.93-.15-.26-.56-.41-1.18-.72Z"/></svg>